<mxfile host="app.diagrams.net" modified="2024-01-05T09:44:39.412Z" agent="Mozilla/5.0 (Windows NT 10.0; Win64; x64) AppleWebKit/537.36 (KHTML, like Gecko) Chrome/120.0.0.0 Safari/537.36 Edg/120.0.0.0" etag="AuToHfppavDM2e5VOLio" version="22.1.16" type="device" pages="4">
  <diagram id="B9tTZPw76UanQ5B-D-NQ" name="Page-1">
    <mxGraphModel dx="1666" dy="759" grid="1" gridSize="10" guides="1" tooltips="1" connect="1" arrows="1" fold="1" page="1" pageScale="1" pageWidth="850" pageHeight="1100" math="0" shadow="0">
      <root>
        <mxCell id="0" />
        <mxCell id="1" parent="0" />
        <mxCell id="v80vZd3jJ_hP5Yk8ttYe-14" value="" style="rounded=0;whiteSpace=wrap;html=1;shadow=0;fillColor=default;" parent="1" vertex="1">
          <mxGeometry x="350" y="10" width="490" height="260" as="geometry" />
        </mxCell>
        <mxCell id="v80vZd3jJ_hP5Yk8ttYe-11" value="" style="rounded=0;whiteSpace=wrap;html=1;shadow=0;fillColor=default;" parent="1" vertex="1">
          <mxGeometry x="100" y="280" width="580" height="350" as="geometry" />
        </mxCell>
        <mxCell id="v80vZd3jJ_hP5Yk8ttYe-1" value="Server&amp;nbsp;" style="rounded=0;whiteSpace=wrap;html=1;" parent="1" vertex="1">
          <mxGeometry x="670" y="30" width="120" height="60" as="geometry" />
        </mxCell>
        <mxCell id="v80vZd3jJ_hP5Yk8ttYe-3" value="Database" style="shape=cylinder3;whiteSpace=wrap;html=1;boundedLbl=1;backgroundOutline=1;size=15;" parent="1" vertex="1">
          <mxGeometry x="170" y="480" width="60" height="80" as="geometry" />
        </mxCell>
        <mxCell id="v80vZd3jJ_hP5Yk8ttYe-5" style="edgeStyle=orthogonalEdgeStyle;rounded=0;orthogonalLoop=1;jettySize=auto;html=1;entryX=0;entryY=0.5;entryDx=0;entryDy=0;" parent="1" source="v80vZd3jJ_hP5Yk8ttYe-4" target="v80vZd3jJ_hP5Yk8ttYe-1" edge="1">
          <mxGeometry relative="1" as="geometry" />
        </mxCell>
        <mxCell id="v80vZd3jJ_hP5Yk8ttYe-4" value="Sync local" style="rounded=1;whiteSpace=wrap;html=1;" parent="1" vertex="1">
          <mxGeometry x="410" y="200" width="120" height="60" as="geometry" />
        </mxCell>
        <mxCell id="v80vZd3jJ_hP5Yk8ttYe-8" style="edgeStyle=orthogonalEdgeStyle;rounded=0;orthogonalLoop=1;jettySize=auto;html=1;entryX=0.5;entryY=1;entryDx=0;entryDy=0;" parent="1" source="v80vZd3jJ_hP5Yk8ttYe-7" target="v80vZd3jJ_hP5Yk8ttYe-4" edge="1">
          <mxGeometry relative="1" as="geometry" />
        </mxCell>
        <mxCell id="v80vZd3jJ_hP5Yk8ttYe-9" style="edgeStyle=orthogonalEdgeStyle;rounded=0;orthogonalLoop=1;jettySize=auto;html=1;" parent="1" source="v80vZd3jJ_hP5Yk8ttYe-7" target="v80vZd3jJ_hP5Yk8ttYe-3" edge="1">
          <mxGeometry relative="1" as="geometry" />
        </mxCell>
        <mxCell id="v80vZd3jJ_hP5Yk8ttYe-7" value="Import DB" style="rounded=1;whiteSpace=wrap;html=1;" parent="1" vertex="1">
          <mxGeometry x="410" y="360" width="120" height="60" as="geometry" />
        </mxCell>
        <mxCell id="v80vZd3jJ_hP5Yk8ttYe-13" value="Spring batch" style="text;html=1;align=center;verticalAlign=middle;resizable=0;points=[];autosize=1;strokeColor=#6c8ebf;fillColor=#dae8fc;" parent="1" vertex="1">
          <mxGeometry x="580" y="590" width="90" height="30" as="geometry" />
        </mxCell>
        <mxCell id="v80vZd3jJ_hP5Yk8ttYe-15" value="FTP SERVER" style="text;html=1;align=center;verticalAlign=middle;resizable=0;points=[];autosize=1;strokeColor=#6c8ebf;fillColor=#dae8fc;" parent="1" vertex="1">
          <mxGeometry x="370" y="20" width="100" height="30" as="geometry" />
        </mxCell>
        <mxCell id="v80vZd3jJ_hP5Yk8ttYe-6" value="01h00 every day" style="text;html=1;align=center;verticalAlign=middle;resizable=0;points=[];autosize=1;strokeColor=none;fillColor=default;shadow=0;" parent="1" vertex="1">
          <mxGeometry x="550" y="125" width="110" height="30" as="geometry" />
        </mxCell>
      </root>
    </mxGraphModel>
  </diagram>
  <diagram id="fkxO5XE1g75g08QJri2Q" name="Page-2">
    <mxGraphModel dx="1666" dy="759" grid="1" gridSize="10" guides="1" tooltips="1" connect="1" arrows="1" fold="1" page="1" pageScale="1" pageWidth="850" pageHeight="1100" math="0" shadow="0">
      <root>
        <mxCell id="0" />
        <mxCell id="1" parent="0" />
        <mxCell id="UHj6TNgTq6uMGSp4gBJ--16" style="edgeStyle=orthogonalEdgeStyle;rounded=0;orthogonalLoop=1;jettySize=auto;html=1;entryX=0;entryY=0.367;entryDx=0;entryDy=0;entryPerimeter=0;" parent="1" source="UHj6TNgTq6uMGSp4gBJ--1" target="UHj6TNgTq6uMGSp4gBJ--15" edge="1">
          <mxGeometry relative="1" as="geometry">
            <Array as="points">
              <mxPoint x="200" y="412" />
              <mxPoint x="200" y="412" />
            </Array>
          </mxGeometry>
        </mxCell>
        <mxCell id="UHj6TNgTq6uMGSp4gBJ--1" value="Client" style="rounded=0;whiteSpace=wrap;html=1;" parent="1" vertex="1">
          <mxGeometry x="30" y="390" width="120" height="60" as="geometry" />
        </mxCell>
        <mxCell id="UHj6TNgTq6uMGSp4gBJ--11" style="edgeStyle=orthogonalEdgeStyle;rounded=0;orthogonalLoop=1;jettySize=auto;html=1;entryX=1;entryY=0.5;entryDx=0;entryDy=0;entryPerimeter=0;exitX=0.5;exitY=1;exitDx=0;exitDy=0;" parent="1" source="UHj6TNgTq6uMGSp4gBJ--8" target="UHj6TNgTq6uMGSp4gBJ--3" edge="1">
          <mxGeometry relative="1" as="geometry">
            <Array as="points">
              <mxPoint x="680" y="300" />
            </Array>
          </mxGeometry>
        </mxCell>
        <mxCell id="UHj6TNgTq6uMGSp4gBJ--13" style="edgeStyle=orthogonalEdgeStyle;rounded=0;orthogonalLoop=1;jettySize=auto;html=1;exitX=0.5;exitY=0;exitDx=0;exitDy=0;entryX=0;entryY=0.5;entryDx=0;entryDy=0;" parent="1" source="UHj6TNgTq6uMGSp4gBJ--3" target="UHj6TNgTq6uMGSp4gBJ--8" edge="1">
          <mxGeometry relative="1" as="geometry" />
        </mxCell>
        <mxCell id="UHj6TNgTq6uMGSp4gBJ--14" style="edgeStyle=orthogonalEdgeStyle;rounded=0;orthogonalLoop=1;jettySize=auto;html=1;entryX=1;entryY=0.5;entryDx=0;entryDy=0;" parent="1" source="UHj6TNgTq6uMGSp4gBJ--3" target="UHj6TNgTq6uMGSp4gBJ--9" edge="1">
          <mxGeometry relative="1" as="geometry" />
        </mxCell>
        <mxCell id="UHj6TNgTq6uMGSp4gBJ--3" value="SessionManager" style="rounded=0;whiteSpace=wrap;html=1;" parent="1" vertex="1">
          <mxGeometry x="460" y="270" width="120" height="60" as="geometry" />
        </mxCell>
        <mxCell id="UHj6TNgTq6uMGSp4gBJ--8" value="Login" style="rounded=1;whiteSpace=wrap;html=1;" parent="1" vertex="1">
          <mxGeometry x="620" y="180" width="120" height="60" as="geometry" />
        </mxCell>
        <mxCell id="UHj6TNgTq6uMGSp4gBJ--18" style="edgeStyle=orthogonalEdgeStyle;rounded=0;orthogonalLoop=1;jettySize=auto;html=1;exitX=0.75;exitY=1;exitDx=0;exitDy=0;entryX=0.75;entryY=0;entryDx=0;entryDy=0;" parent="1" source="UHj6TNgTq6uMGSp4gBJ--9" target="UHj6TNgTq6uMGSp4gBJ--15" edge="1">
          <mxGeometry relative="1" as="geometry" />
        </mxCell>
        <mxCell id="UHj6TNgTq6uMGSp4gBJ--24" style="edgeStyle=orthogonalEdgeStyle;rounded=0;orthogonalLoop=1;jettySize=auto;html=1;exitX=0.75;exitY=0;exitDx=0;exitDy=0;entryX=0.75;entryY=1;entryDx=0;entryDy=0;" parent="1" source="UHj6TNgTq6uMGSp4gBJ--9" target="UHj6TNgTq6uMGSp4gBJ--10" edge="1">
          <mxGeometry relative="1" as="geometry" />
        </mxCell>
        <mxCell id="UHj6TNgTq6uMGSp4gBJ--9" value="IvmsServiceImpl" style="rounded=1;whiteSpace=wrap;html=1;" parent="1" vertex="1">
          <mxGeometry x="260" y="270" width="120" height="60" as="geometry" />
        </mxCell>
        <mxCell id="UHj6TNgTq6uMGSp4gBJ--23" style="edgeStyle=orthogonalEdgeStyle;rounded=0;orthogonalLoop=1;jettySize=auto;html=1;exitX=0.25;exitY=1;exitDx=0;exitDy=0;entryX=0.25;entryY=0;entryDx=0;entryDy=0;" parent="1" source="UHj6TNgTq6uMGSp4gBJ--10" target="UHj6TNgTq6uMGSp4gBJ--9" edge="1">
          <mxGeometry relative="1" as="geometry" />
        </mxCell>
        <mxCell id="UHj6TNgTq6uMGSp4gBJ--10" value="CallApiRetry" style="rounded=1;whiteSpace=wrap;html=1;" parent="1" vertex="1">
          <mxGeometry x="260" y="140" width="120" height="60" as="geometry" />
        </mxCell>
        <mxCell id="UHj6TNgTq6uMGSp4gBJ--17" style="edgeStyle=orthogonalEdgeStyle;rounded=0;orthogonalLoop=1;jettySize=auto;html=1;" parent="1" source="UHj6TNgTq6uMGSp4gBJ--15" edge="1">
          <mxGeometry relative="1" as="geometry">
            <mxPoint x="290" y="330" as="targetPoint" />
            <Array as="points">
              <mxPoint x="290" y="330" />
            </Array>
          </mxGeometry>
        </mxCell>
        <mxCell id="UHj6TNgTq6uMGSp4gBJ--19" style="edgeStyle=orthogonalEdgeStyle;rounded=0;orthogonalLoop=1;jettySize=auto;html=1;exitX=0;exitY=0.75;exitDx=0;exitDy=0;entryX=1;entryY=0.75;entryDx=0;entryDy=0;" parent="1" source="UHj6TNgTq6uMGSp4gBJ--15" target="UHj6TNgTq6uMGSp4gBJ--1" edge="1">
          <mxGeometry relative="1" as="geometry" />
        </mxCell>
        <mxCell id="UHj6TNgTq6uMGSp4gBJ--15" value="Controller" style="rounded=1;whiteSpace=wrap;html=1;" parent="1" vertex="1">
          <mxGeometry x="260" y="390" width="120" height="60" as="geometry" />
        </mxCell>
      </root>
    </mxGraphModel>
  </diagram>
  <diagram id="NkEq4F4YC_saWY4AZJnt" name="Page-3">
    <mxGraphModel dx="1666" dy="759" grid="1" gridSize="10" guides="1" tooltips="1" connect="1" arrows="1" fold="1" page="1" pageScale="1" pageWidth="850" pageHeight="1100" math="0" shadow="0">
      <root>
        <mxCell id="0" />
        <mxCell id="1" parent="0" />
        <mxCell id="JgHp_7VIb4sT08UkOAoS-2" value="Job3 (Tasklet&lt;span style=&quot;background-color: initial;&quot;&gt;)&lt;/span&gt;" style="rounded=0;whiteSpace=wrap;html=1;" parent="1" vertex="1">
          <mxGeometry x="340" y="170" width="120" height="60" as="geometry" />
        </mxCell>
        <mxCell id="JgHp_7VIb4sT08UkOAoS-3" value="Job5 (Tasklet&lt;span style=&quot;background-color: initial;&quot;&gt;)&lt;/span&gt;" style="rounded=0;whiteSpace=wrap;html=1;" parent="1" vertex="1">
          <mxGeometry x="600" y="170" width="120" height="60" as="geometry" />
        </mxCell>
        <mxCell id="JgHp_7VIb4sT08UkOAoS-4" value="Job1 (Tasklet&lt;span style=&quot;background-color: initial;&quot;&gt;)&lt;/span&gt;" style="rounded=0;whiteSpace=wrap;html=1;" parent="1" vertex="1">
          <mxGeometry x="80" y="170" width="120" height="60" as="geometry" />
        </mxCell>
        <mxCell id="JgHp_7VIb4sT08UkOAoS-5" value="Job2 (Tasklet&lt;span style=&quot;background-color: initial;&quot;&gt;)&lt;/span&gt;" style="rounded=0;whiteSpace=wrap;html=1;" parent="1" vertex="1">
          <mxGeometry x="210" y="170" width="120" height="60" as="geometry" />
        </mxCell>
        <mxCell id="JgHp_7VIb4sT08UkOAoS-6" value="Job4 (Tasklet&lt;span style=&quot;background-color: initial;&quot;&gt;)&lt;/span&gt;" style="rounded=0;whiteSpace=wrap;html=1;" parent="1" vertex="1">
          <mxGeometry x="470" y="170" width="120" height="60" as="geometry" />
        </mxCell>
      </root>
    </mxGraphModel>
  </diagram>
  <diagram id="JeWMGwkmdJzT3e3GcV1q" name="Page-4">
    <mxGraphModel dx="2516" dy="2959" grid="1" gridSize="10" guides="1" tooltips="1" connect="1" arrows="1" fold="1" page="1" pageScale="1" pageWidth="850" pageHeight="1100" math="0" shadow="0">
      <root>
        <mxCell id="0" />
        <mxCell id="1" parent="0" />
        <mxCell id="yq1DjShWKCmURVlkzmUZ-10" style="edgeStyle=orthogonalEdgeStyle;rounded=0;orthogonalLoop=1;jettySize=auto;html=1;" parent="1" source="yq1DjShWKCmURVlkzmUZ-1" target="yq1DjShWKCmURVlkzmUZ-8" edge="1">
          <mxGeometry relative="1" as="geometry" />
        </mxCell>
        <mxCell id="yq1DjShWKCmURVlkzmUZ-11" value="30s/reload" style="edgeLabel;html=1;align=center;verticalAlign=middle;resizable=0;points=[];" parent="yq1DjShWKCmURVlkzmUZ-10" vertex="1" connectable="0">
          <mxGeometry x="-0.4462" y="3" relative="1" as="geometry">
            <mxPoint as="offset" />
          </mxGeometry>
        </mxCell>
        <mxCell id="yq1DjShWKCmURVlkzmUZ-1" value="Config Job" style="rounded=0;whiteSpace=wrap;html=1;" parent="1" vertex="1">
          <mxGeometry x="-740" y="-920" width="120" height="60" as="geometry" />
        </mxCell>
        <mxCell id="yq1DjShWKCmURVlkzmUZ-12" style="edgeStyle=orthogonalEdgeStyle;rounded=0;orthogonalLoop=1;jettySize=auto;html=1;" parent="1" source="yq1DjShWKCmURVlkzmUZ-2" edge="1">
          <mxGeometry relative="1" as="geometry">
            <mxPoint x="-490" y="-660" as="targetPoint" />
          </mxGeometry>
        </mxCell>
        <mxCell id="yq1DjShWKCmURVlkzmUZ-13" value="Text" style="edgeLabel;html=1;align=center;verticalAlign=middle;resizable=0;points=[];" parent="yq1DjShWKCmURVlkzmUZ-12" vertex="1" connectable="0">
          <mxGeometry x="-0.5376" y="-2" relative="1" as="geometry">
            <mxPoint as="offset" />
          </mxGeometry>
        </mxCell>
        <mxCell id="YA-p1BALMM4nles2bQbG-1" value="Text" style="edgeLabel;html=1;align=center;verticalAlign=middle;resizable=0;points=[];" parent="yq1DjShWKCmURVlkzmUZ-12" vertex="1" connectable="0">
          <mxGeometry x="-0.5453" y="-1" relative="1" as="geometry">
            <mxPoint as="offset" />
          </mxGeometry>
        </mxCell>
        <mxCell id="yq1DjShWKCmURVlkzmUZ-2" value="Registry Job" style="rounded=0;whiteSpace=wrap;html=1;" parent="1" vertex="1">
          <mxGeometry x="-200" y="-920" width="120" height="60" as="geometry" />
        </mxCell>
        <mxCell id="yq1DjShWKCmURVlkzmUZ-3" value="Excute Job" style="rounded=0;whiteSpace=wrap;html=1;" parent="1" vertex="1">
          <mxGeometry x="-550" y="-620" width="120" height="50" as="geometry" />
        </mxCell>
        <mxCell id="yq1DjShWKCmURVlkzmUZ-4" value="Interface Job" style="rounded=0;whiteSpace=wrap;html=1;" parent="1" vertex="1">
          <mxGeometry x="-200" y="-500" width="120" height="60" as="geometry" />
        </mxCell>
        <mxCell id="yq1DjShWKCmURVlkzmUZ-7" value="Job-managment" style="text;html=1;strokeColor=none;fillColor=none;align=center;verticalAlign=middle;whiteSpace=wrap;rounded=0;" parent="1" vertex="1">
          <mxGeometry x="-600" y="-1220" width="330" height="30" as="geometry" />
        </mxCell>
        <mxCell id="yq1DjShWKCmURVlkzmUZ-8" value="JobGateWay" style="rounded=0;whiteSpace=wrap;html=1;" parent="1" vertex="1">
          <mxGeometry x="-390" y="-650" width="120" height="60" as="geometry" />
        </mxCell>
        <mxCell id="YA-p1BALMM4nles2bQbG-2" value="&lt;h1&gt;&lt;font style=&quot;font-size: 18px;&quot;&gt;Read Config Job&lt;/font&gt;&lt;/h1&gt;&lt;p&gt;Thực hiện đọc file xml đẩy thông tin các job và map.&lt;/p&gt;" style="text;html=1;strokeColor=none;fillColor=none;spacing=5;spacingTop=-20;whiteSpace=wrap;overflow=hidden;rounded=0;" parent="1" vertex="1">
          <mxGeometry x="-775" y="-840" width="190" height="120" as="geometry" />
        </mxCell>
        <mxCell id="YA-p1BALMM4nles2bQbG-3" value="&lt;h1&gt;&lt;font style=&quot;font-size: 18px;&quot;&gt;Read Config Job&lt;/font&gt;&lt;/h1&gt;&lt;p&gt;Thực hiện đọc file xml đẩy thông tin các job và map.&lt;/p&gt;" style="text;html=1;strokeColor=none;fillColor=none;spacing=5;spacingTop=-20;whiteSpace=wrap;overflow=hidden;rounded=0;" parent="1" vertex="1">
          <mxGeometry x="-220" y="-850" width="190" height="120" as="geometry" />
        </mxCell>
      </root>
    </mxGraphModel>
  </diagram>
</mxfile>
